<?xml version="1.0" encoding="utf-8"?>
<!-- Generated by IcoMoon.io -->
<!DOCTYPE svg PUBLIC "-//W3C//DTD SVG 1.1//EN" "http://www.w3.org/Graphics/SVG/1.1/DTD/svg11.dtd">
<svg version="1.1" xmlns="http://www.w3.org/2000/svg" xmlns:xlink="http://www.w3.org/1999/xlink" width="20" height="20" viewBox="0 0 512 512">
<g>
</g>
	<path d="M203.489 74.138h113.183c28.18 0 51.241 21.545 51.241 47.647v314.030c0 26.102-23.060 47.616-51.241 47.616h-121.375c-28.18 0-51.21-21.524-51.21-47.616v-314.020c0-15.852 8.172-29.706 21.483-38.4-3.574-4.117-6.154-9.246-6.154-14.848v-17.428c0-12.288 10.261-22.549 22.548-22.549v0c12.288 0 22.016 10.261 22.016 22.549v17.418c0.010 2.038 0.010 4.086-0.492 5.602v0zM299.755 418.887c-5.12 0-9.195 4.096-9.195 9.216v16.404c0 5.099 4.075 9.195 9.195 9.195h28.17c5.151 0 9.759-4.096 9.759-9.195v-16.404c0-5.12-4.608-9.216-9.759-9.216h-28.17zM240.865 418.887c-5.13 0-9.216 4.096-9.216 9.216v16.404c0 5.099 4.086 9.195 9.216 9.195h28.18c5.13 0 9.206-4.096 9.206-9.195v-16.404c0-5.12-4.075-9.216-9.206-9.216h-28.18zM181.975 418.887c-5.642 0-9.749 4.096-9.749 9.216v16.404c0 5.099 4.106 9.195 9.749 9.195h27.638c5.141 0 9.749-4.096 9.749-9.195v-16.404c0-5.12-4.608-9.216-9.749-9.216h-27.638zM299.755 374.313c-5.12 0-9.195 4.096-9.195 9.236v16.384c0 5.14 4.075 9.216 9.195 9.216h28.17c5.151 0 9.759-4.075 9.759-9.216v-16.384c0-5.14-4.608-9.236-9.759-9.236h-28.17zM240.865 374.313c-5.13 0-9.216 4.096-9.216 9.236v16.384c0 5.14 4.086 9.216 9.216 9.216h28.18c5.13 0 9.206-4.075 9.206-9.216v-16.384c0-5.14-4.075-9.236-9.206-9.236h-28.18zM181.975 374.313c-5.642 0-9.749 4.096-9.749 9.236v16.384c0 5.14 4.106 9.216 9.749 9.216h27.638c5.141 0 9.749-4.075 9.749-9.216v-16.384c0-5.14-4.608-9.236-9.749-9.236h-27.638zM299.755 329.769c-5.12 0-9.195 4.086-9.195 9.206v16.394c0 5.099 4.075 9.718 9.195 9.718h28.17c5.151 0 9.759-4.618 9.759-9.718v-16.394c0-5.12-4.608-9.206-9.759-9.206h-28.17zM240.865 329.769c-5.13 0-9.216 4.086-9.216 9.206v16.394c0 5.099 4.086 9.718 9.216 9.718h28.18c5.13 0 9.206-4.618 9.206-9.718v-16.394c0-5.12-4.075-9.206-9.206-9.206h-28.18zM181.975 329.769c-5.642 0-9.749 4.086-9.749 9.206v16.394c0 5.099 4.106 9.718 9.749 9.718h27.638c5.141 0 9.749-4.618 9.749-9.718v-16.394c0-5.12-4.608-9.206-9.749-9.206h-27.638zM299.755 283.146c-5.12 0-9.195 4.096-9.195 9.216v16.384c0 5.12 4.075 9.236 9.195 9.236h28.17c5.151 0 9.759-4.116 9.759-9.236v-16.384c0-5.12-4.608-9.216-9.759-9.216h-28.17zM240.865 283.146c-5.13 0-9.216 4.096-9.216 9.216v16.384c0 5.12 4.086 9.236 9.216 9.236h28.18c5.13 0 9.206-4.116 9.206-9.236v-16.384c0-5.12-4.075-9.216-9.206-9.216h-28.18zM181.975 283.146c-5.642 0-9.749 4.096-9.749 9.216v16.384c0 5.12 4.106 9.236 9.749 9.236h27.638c5.141 0 9.749-4.116 9.749-9.236v-16.384c0-5.12-4.608-9.216-9.749-9.216h-27.638zM187.607 117.689c-10.261 0-18.442 8.202-18.442 18.442v97.843c0 9.728 8.182 18.442 18.442 18.442h136.745c9.759 0 18.452-8.714 18.452-18.442v-97.843c0-10.24-8.694-18.442-18.452-18.442h-136.745z" fill="#d2d8d8" />
</svg>
